<?xml version="1.0" encoding="UTF-8"?>
<svg xmlns="http://www.w3.org/2000/svg" xmlns:xlink="http://www.w3.org/1999/xlink" width="36" height="36" viewBox="0 0 36 36" version="1.1">
<g id="surface1">
<path style=" stroke:none;fill-rule:nonzero;fill:rgb(11.764706%,11.764706%,60%);fill-opacity:1;" d="M 32.25 6 L 3.75 6 C 1.683594 6 0 7.683594 0 9.75 L 0 26.25 C 0 28.316406 1.683594 30 3.75 30 L 32.25 30 C 34.316406 30 36 28.316406 36 26.25 L 36 9.75 C 36 7.683594 34.316406 6 32.25 6 Z M 34.5 26.25 C 34.5 27.492188 33.492188 28.5 32.25 28.5 L 3.75 28.5 C 2.507812 28.5 1.5 27.492188 1.5 26.25 L 1.5 9.75 C 1.5 8.507812 2.507812 7.5 3.75 7.5 L 32.25 7.5 C 33.492188 7.5 34.5 8.507812 34.5 9.75 Z M 34.5 26.25 "/>
<path style=" stroke:none;fill-rule:nonzero;fill:rgb(11.764706%,11.764706%,60%);fill-opacity:1;" d="M 35.25 10.5 L 0.75 10.5 C 0.335938 10.5 0 10.835938 0 11.25 L 0 15.75 C 0 16.164062 0.335938 16.5 0.75 16.5 L 35.25 16.5 C 35.664062 16.5 36 16.164062 36 15.75 L 36 11.25 C 36 10.835938 35.664062 10.5 35.25 10.5 Z M 34.5 15 L 1.5 15 L 1.5 12 L 34.5 12 Z M 34.5 15 "/>
<path style=" stroke:none;fill-rule:nonzero;fill:rgb(11.764706%,11.764706%,60%);fill-opacity:1;" d="M 14.25 21 L 5.25 21 C 4.835938 21 4.5 21.335938 4.5 21.75 C 4.5 22.164062 4.835938 22.5 5.25 22.5 L 14.25 22.5 C 14.664062 22.5 15 22.164062 15 21.75 C 15 21.335938 14.664062 21 14.25 21 Z M 14.25 21 "/>
<path style=" stroke:none;fill-rule:nonzero;fill:rgb(11.764706%,11.764706%,60%);fill-opacity:1;" d="M 14.25 24 L 5.25 24 C 4.835938 24 4.5 24.335938 4.5 24.75 C 4.5 25.164062 4.835938 25.5 5.25 25.5 L 14.25 25.5 C 14.664062 25.5 15 25.164062 15 24.75 C 15 24.335938 14.664062 24 14.25 24 Z M 14.25 24 "/>
<path style=" stroke:none;fill-rule:nonzero;fill:rgb(11.764706%,11.764706%,60%);fill-opacity:1;" d="M 29.25 19.5 L 27.75 19.5 C 26.507812 19.5 25.5 20.507812 25.5 21.75 L 25.5 23.25 C 25.5 24.492188 26.507812 25.5 27.75 25.5 L 29.25 25.5 C 30.492188 25.5 31.5 24.492188 31.5 23.25 L 31.5 21.75 C 31.5 20.507812 30.492188 19.5 29.25 19.5 Z M 30 23.25 C 30 23.664062 29.664062 24 29.25 24 L 27.75 24 C 27.335938 24 27 23.664062 27 23.25 L 27 21.75 C 27 21.335938 27.335938 21 27.75 21 L 29.25 21 C 29.664062 21 30 21.335938 30 21.75 Z M 30 23.25 "/>
</g>
</svg>
