<?xml version="1.0" encoding="UTF-8"?>
<svg xmlns="http://www.w3.org/2000/svg" xmlns:xlink="http://www.w3.org/1999/xlink" width="36" height="36" viewBox="0 0 36 36" version="1.1">
<g id="surface1">
<path style=" stroke:none;fill-rule:nonzero;fill:rgb(11.764706%,11.764706%,60%);fill-opacity:1;" d="M 35.472656 10.652344 L 30.972656 6.152344 C 30.730469 5.910156 30.367188 5.839844 30.050781 5.96875 C 29.738281 6.101562 29.53125 6.410156 29.53125 6.75 L 29.53125 8.15625 L 27.84375 8.15625 L 27.84375 3.375 C 27.84375 1.667969 26.457031 0.28125 24.75 0.28125 L 11.25 0.28125 C 9.542969 0.28125 8.15625 1.667969 8.15625 3.375 L 8.15625 21.65625 L 6.46875 21.65625 L 6.46875 20.25 C 6.46875 19.910156 6.261719 19.601562 5.949219 19.46875 C 5.632812 19.339844 5.269531 19.410156 5.027344 19.652344 L 0.527344 24.152344 C 0.199219 24.484375 0.199219 25.015625 0.527344 25.347656 L 5.027344 29.847656 C 5.53125 30.378906 6.492188 29.976562 6.46875 29.25 L 6.46875 27.84375 L 8.15625 27.84375 L 8.15625 32.625 C 8.15625 34.332031 9.542969 35.71875 11.25 35.71875 L 24.75 35.71875 C 26.457031 35.71875 27.84375 34.332031 27.84375 32.625 L 27.84375 14.34375 L 29.53125 14.34375 L 29.53125 15.75 C 29.507812 16.480469 30.46875 16.878906 30.972656 16.347656 L 35.472656 11.847656 C 35.800781 11.515625 35.800781 10.984375 35.472656 10.652344 Z M 11.25 1.96875 L 24.75 1.96875 C 25.527344 1.96875 26.15625 2.597656 26.15625 3.375 L 26.15625 4.78125 L 9.84375 4.78125 L 9.84375 3.375 C 9.84375 2.597656 10.472656 1.96875 11.25 1.96875 Z M 24.75 34.03125 L 11.25 34.03125 C 10.472656 34.03125 9.84375 33.402344 9.84375 32.625 L 9.84375 31.21875 L 26.15625 31.21875 L 26.15625 32.625 C 26.15625 33.402344 25.527344 34.03125 24.75 34.03125 Z M 31.21875 13.714844 L 31.21875 13.5 C 31.21875 13.035156 30.839844 12.65625 30.375 12.65625 L 23.625 12.65625 C 23.160156 12.65625 22.78125 13.035156 22.78125 13.5 C 22.78125 13.964844 23.160156 14.34375 23.625 14.34375 L 26.15625 14.34375 L 26.15625 29.53125 L 9.84375 29.53125 L 9.84375 27.84375 L 12.375 27.84375 C 12.839844 27.84375 13.21875 27.464844 13.21875 27 C 13.21875 26.535156 12.839844 26.15625 12.375 26.15625 L 5.625 26.15625 C 5.160156 26.15625 4.78125 26.535156 4.78125 27 L 4.78125 27.214844 L 2.316406 24.75 L 4.78125 22.285156 L 4.78125 22.5 C 4.78125 22.964844 5.160156 23.34375 5.625 23.34375 L 12.375 23.34375 C 12.839844 23.34375 13.21875 22.964844 13.21875 22.5 C 13.21875 22.035156 12.839844 21.65625 12.375 21.65625 L 9.84375 21.65625 L 9.84375 6.46875 L 26.15625 6.46875 L 26.15625 8.15625 L 23.625 8.15625 C 23.160156 8.15625 22.78125 8.535156 22.78125 9 C 22.78125 9.464844 23.160156 9.84375 23.625 9.84375 L 30.375 9.84375 C 30.839844 9.84375 31.21875 9.464844 31.21875 9 L 31.21875 8.785156 L 33.683594 11.25 Z M 31.21875 13.714844 "/>
<path style=" stroke:none;fill-rule:nonzero;fill:rgb(11.764706%,11.764706%,60%);fill-opacity:1;" d="M 16.875 14.34375 L 19.6875 14.34375 C 20.152344 14.34375 20.53125 14.722656 20.53125 15.1875 C 20.53125 15.652344 20.910156 16.03125 21.375 16.03125 C 21.839844 16.03125 22.21875 15.652344 22.21875 15.1875 C 22.21875 13.789062 21.085938 12.65625 19.6875 12.65625 L 18.84375 12.65625 L 18.84375 11.25 C 18.84375 10.785156 18.464844 10.40625 18 10.40625 C 17.535156 10.40625 17.15625 10.785156 17.15625 11.25 L 17.15625 12.65625 L 16.875 12.65625 C 15.167969 12.65625 13.78125 14.042969 13.78125 15.75 C 13.78125 17.457031 15.167969 18.84375 16.875 18.84375 L 19.125 18.84375 C 19.902344 18.84375 20.53125 19.472656 20.53125 20.25 C 20.53125 21.027344 19.902344 21.65625 19.125 21.65625 L 16.3125 21.65625 C 15.847656 21.65625 15.46875 21.277344 15.46875 20.8125 C 15.46875 20.347656 15.089844 19.96875 14.625 19.96875 C 14.160156 19.96875 13.78125 20.347656 13.78125 20.8125 C 13.78125 22.210938 14.914062 23.34375 16.3125 23.34375 L 17.15625 23.34375 L 17.15625 24.75 C 17.15625 25.214844 17.535156 25.59375 18 25.59375 C 18.464844 25.59375 18.84375 25.214844 18.84375 24.75 L 18.84375 23.34375 L 19.125 23.34375 C 20.832031 23.34375 22.21875 21.957031 22.21875 20.25 C 22.21875 18.542969 20.832031 17.15625 19.125 17.15625 L 16.875 17.15625 C 16.097656 17.15625 15.46875 16.527344 15.46875 15.75 C 15.46875 14.972656 16.097656 14.34375 16.875 14.34375 Z M 16.875 14.34375 "/>
</g>
</svg>
